# xmcd
# 
# Track frame offsets:
#     150
#     16703
#     33202
#     49475
#     66069
#     86750
#     102312
#     118680
#     136821
#     153774
#     170425
#     187025
#     205028
#     221464
#     237375
#     252341
#     269193
#     285691
#     302502
#     318857
# 
# Disc length: 4451
# 
# Revision: 0
# Processed by: cddbd v1.5.2PL0 Copyright (c) Steve Scherf et al.
# Submitted via: fre:ac v1.0.31
# 
DISCID=1a116114
DTITLE=Praga Khan - Sounds of Sin CD 2
DYEAR=0
DGENRE=Techno
TTITLE0=Injected with a Poison
TTITLE1=Rave the Rhythm
TTITLE2=Moog Eruption
TTITLE3=Je n'aime que toi
TTITLE4=Phantasia
TTITLE5=Praise God
TTITLE6=Dreamer Dream
TTITLE7=Running Out Of Time
TTITLE8=Rave Alarm
TTITLE9=Groove to Move
TTITLE10=God of Abraham
TTITLE11=Violet Skies
TTITLE12=Flesh and Blood
TTITLE13=N'aie Pas peur
TTITLE14=Free the World
TTITLE15=Mortal Kombat
TTITLE16=A Million Colours
TTITLE17=In Your Dreams
TTITLE18=World of God
TTITLE19=The Antwerp Conspiracy
EXTD=
EXTT0=
EXTT1=
EXTT2=
EXTT3=
EXTT4=
EXTT5=
EXTT6=
EXTT7=
EXTT8=
EXTT9=
EXTT10=
EXTT11=
EXTT12=
EXTT13=
EXTT14=
EXTT15=
EXTT16=
EXTT17=
EXTT18=
EXTT19=
PLAYORDER=
